<svg id="Calque_1" data-name="Calque 1" xmlns="http://www.w3.org/2000/svg" viewBox="0 0 589.46 126.2"><circle cx="15.77" cy="15.79" r="15.77" style="fill:#e95245"/><path d="M89.45,189.29a31.55,31.55,0,1,1,0-63.09Z" transform="translate(-57.9 -63.09)" style="fill:#e95245"/><path d="M152.54,126.2v63.09A31.54,31.54,0,0,1,121,157.74V63.11a31.54,31.54,0,0,1,31.54,31.54Z" transform="translate(-57.9 -63.09)" style="fill:#e95245"/><path d="M184.09,126.2v63.09a31.54,31.54,0,0,0,31.54-31.55V63.11a31.54,31.54,0,0,0-31.54,31.54Z" transform="translate(-57.9 -63.09)" style="fill:#f7a600"/><path d="M276.49,105.61H256.32l-3,9.11H242.5l17.72-50.61h12.37l17.78,50.61H279.53Zm-3.11-9.33L266.44,75.6,259.5,96.28Z" transform="translate(-57.9 -63.09)" style="fill:#e95245"/><path d="M302.39,64.11h10.85L325.6,103l12.29-38.9h10.92l-17.06,50.61H319.38Z" transform="translate(-57.9 -63.09)" style="fill:#e95245"/><path d="M378.11,64.11v50.61h-10V64.11Z" transform="translate(-57.9 -63.09)" style="fill:#e95245"/><path d="M451.65,91.44q0,10.85-6.94,17.57t-17.93,6.72q-11.71,0-19.41-7.63a25.18,25.18,0,0,1-7.71-18.62A26.13,26.13,0,0,1,426.2,63.09a26.52,26.52,0,0,1,12.95,3.22,23.9,23.9,0,0,1,9.11,8.57l-8.54,4.92a13.42,13.42,0,0,0-5.45-5.07,17,17,0,0,0-8.14-2,16,16,0,0,0-11.89,4.74,16.34,16.34,0,0,0-4.67,12,15.89,15.89,0,0,0,4.74,11.83q4.74,4.66,12.54,4.66a16.66,16.66,0,0,0,9.58-2.57,12.73,12.73,0,0,0,5.17-7.05H426.27V87.53h25.38Z" transform="translate(-57.9 -63.09)" style="fill:#e95245"/><path d="M512.48,64.11v50.61h-7.59l-21.7-30.95v31h-10V64.11h7.59L502.5,95V64.11Z" transform="translate(-57.9 -63.09)" style="fill:#e95245"/><path d="M541.67,108.1A25.42,25.42,0,0,1,534,89.41a26.29,26.29,0,1,1,52.57,0,26.38,26.38,0,0,1-44.94,18.69Zm30.26-6.79a16,16,0,0,0,4.7-11.9,16.15,16.15,0,0,0-4.7-11.93,16.76,16.76,0,0,0-23.28,0A16.15,16.15,0,0,0,544,89.41a16,16,0,0,0,4.7,11.9,16.87,16.87,0,0,0,23.28,0Z" transform="translate(-57.9 -63.09)" style="fill:#e95245"/><path d="M647.37,64.11v50.61h-7.6L618.08,83.77v31h-10V64.11h7.59L637.39,95V64.11Z" transform="translate(-57.9 -63.09)" style="fill:#e95245"/><path d="M251.32,185.38a13.49,13.49,0,0,1-4.26-10.45V148h5.39V174.7a9.1,9.1,0,0,0,2.54,6.8q2.55,2.52,7.3,2.52t7.29-2.52a9.1,9.1,0,0,0,2.55-6.8V148h5.33v26.92a13.54,13.54,0,0,1-4.23,10.45,17.3,17.3,0,0,1-21.91,0Z" transform="translate(-57.9 -63.09)" style="fill:#f7a600"/><path d="M327.83,148v40.53h-4.34l-20.84-30.28v30.28h-5.38V148h4.34l20.84,30.22V148Z" transform="translate(-57.9 -63.09)" style="fill:#f7a600"/><path d="M353.49,148v40.53h-5.38V148Z" transform="translate(-57.9 -63.09)" style="fill:#f7a600"/><path d="M369.88,148h5.79l11.75,33.81L399.12,148H405l-14.53,40.53h-6.08Z" transform="translate(-57.9 -63.09)" style="fill:#f7a600"/><path d="M445.5,183.44v5.1H421.3V148h23.91v5.1H426.69v12.44h17.07v5H426.69v12.85Z" transform="translate(-57.9 -63.09)" style="fill:#f7a600"/><path d="M478.51,173H469v15.52h-5.39V148h16.21a12.21,12.21,0,0,1,8.92,3.68,12.33,12.33,0,0,1,1.36,16.06,12.52,12.52,0,0,1-6.05,4.58l9.55,16.21h-6ZM469,168.16h10.82a6.8,6.8,0,0,0,5.13-2.23,7.5,7.5,0,0,0,2.11-5.35,7.39,7.39,0,0,0-2.11-5.33,6.84,6.84,0,0,0-5.13-2.2H469Z" transform="translate(-57.9 -63.09)" style="fill:#f7a600"/><path d="M513.29,186.63a14.13,14.13,0,0,1-5.65-7.3l4.63-2.66Q514.66,184,523.1,184a10.22,10.22,0,0,0,6.37-1.71,5.46,5.46,0,0,0,2.2-4.54,4.86,4.86,0,0,0-2.2-4.34,31.49,31.49,0,0,0-7.35-3.07c-1.7-.54-3-1-3.88-1.3a32.14,32.14,0,0,1-3.33-1.51,8.77,8.77,0,0,1-4.75-4.89,9.52,9.52,0,0,1-.78-3.94,10.35,10.35,0,0,1,3.7-8.36,13.61,13.61,0,0,1,9-3.1,14.46,14.46,0,0,1,8.36,2.43,15.16,15.16,0,0,1,5.36,6.43l-4.52,2.6q-2.6-6.25-9.2-6.25a8.28,8.28,0,0,0-5.33,1.62,5.34,5.34,0,0,0-2,4.4,4.69,4.69,0,0,0,1.91,4,25.28,25.28,0,0,0,6.6,2.9c1.12.34,1.91.6,2.38.75s1.18.42,2.17.81,1.71.7,2.17.93l1.88,1a7.86,7.86,0,0,1,1.77,1.22c.38.38.84.86,1.36,1.42a5.85,5.85,0,0,1,1.13,1.7,13.65,13.65,0,0,1,.6,2,10.26,10.26,0,0,1,.27,2.4,10.36,10.36,0,0,1-3.88,8.48q-3.89,3.17-10.14,3.16A17.19,17.19,0,0,1,513.29,186.63Z" transform="translate(-57.9 -63.09)" style="fill:#f7a600"/><path d="M560.05,148v40.53h-5.39V148Z" transform="translate(-57.9 -63.09)" style="fill:#f7a600"/><path d="M606.25,153.11h-12v35.43h-5.33V153.11H577V148h29.24Z" transform="translate(-57.9 -63.09)" style="fill:#f7a600"/><path d="M647.37,183.44v5.1H623.16V148h23.92v5.1H628.55v12.44h17.08v5H628.55v12.85Zm-10.83-39.36h-4.86l4.63-7.65h6.08Z" transform="translate(-57.9 -63.09)" style="fill:#f7a600"/></svg>